<mxfile host="Electron" agent="Mozilla/5.0 (X11; Linux x86_64) AppleWebKit/537.36 (KHTML, like Gecko) draw.io/27.0.9 Chrome/134.0.6998.205 Electron/35.4.0 Safari/537.36" version="27.0.9">
  <diagram name="Page-1" id="uyj8i5rU2ydL1-Zo_W3Z">
    <mxGraphModel dx="1426" dy="927" grid="1" gridSize="10" guides="1" tooltips="1" connect="1" arrows="1" fold="1" page="1" pageScale="1" pageWidth="850" pageHeight="1100" math="0" shadow="0">
      <root>
        <mxCell id="0" />
        <mxCell id="1" parent="0" />
        <mxCell id="V3e1K26lSJcsPeHMzUFd-9" value="" style="edgeStyle=orthogonalEdgeStyle;rounded=0;orthogonalLoop=1;jettySize=auto;html=1;" edge="1" parent="1" source="V3e1K26lSJcsPeHMzUFd-1" target="V3e1K26lSJcsPeHMzUFd-2">
          <mxGeometry relative="1" as="geometry" />
        </mxCell>
        <mxCell id="V3e1K26lSJcsPeHMzUFd-1" value="Home page" style="rounded=0;whiteSpace=wrap;html=1;" vertex="1" parent="1">
          <mxGeometry x="365" y="80" width="120" height="60" as="geometry" />
        </mxCell>
        <mxCell id="V3e1K26lSJcsPeHMzUFd-10" value="" style="edgeStyle=orthogonalEdgeStyle;rounded=0;orthogonalLoop=1;jettySize=auto;html=1;" edge="1" parent="1" source="V3e1K26lSJcsPeHMzUFd-2" target="V3e1K26lSJcsPeHMzUFd-8">
          <mxGeometry relative="1" as="geometry" />
        </mxCell>
        <mxCell id="V3e1K26lSJcsPeHMzUFd-11" value="" style="edgeStyle=orthogonalEdgeStyle;rounded=0;orthogonalLoop=1;jettySize=auto;html=1;" edge="1" parent="1" source="V3e1K26lSJcsPeHMzUFd-2" target="V3e1K26lSJcsPeHMzUFd-4">
          <mxGeometry relative="1" as="geometry" />
        </mxCell>
        <mxCell id="V3e1K26lSJcsPeHMzUFd-15" style="edgeStyle=orthogonalEdgeStyle;rounded=0;orthogonalLoop=1;jettySize=auto;html=1;entryX=0.5;entryY=1;entryDx=0;entryDy=0;" edge="1" parent="1" source="V3e1K26lSJcsPeHMzUFd-2" target="V3e1K26lSJcsPeHMzUFd-14">
          <mxGeometry relative="1" as="geometry">
            <Array as="points">
              <mxPoint x="425" y="280" />
              <mxPoint x="760" y="280" />
            </Array>
          </mxGeometry>
        </mxCell>
        <mxCell id="V3e1K26lSJcsPeHMzUFd-17" style="edgeStyle=orthogonalEdgeStyle;rounded=0;orthogonalLoop=1;jettySize=auto;html=1;" edge="1" parent="1" source="V3e1K26lSJcsPeHMzUFd-2" target="V3e1K26lSJcsPeHMzUFd-16">
          <mxGeometry relative="1" as="geometry" />
        </mxCell>
        <mxCell id="V3e1K26lSJcsPeHMzUFd-2" value="Login" style="rounded=0;whiteSpace=wrap;html=1;" vertex="1" parent="1">
          <mxGeometry x="365" y="200" width="120" height="60" as="geometry" />
        </mxCell>
        <mxCell id="V3e1K26lSJcsPeHMzUFd-12" style="edgeStyle=orthogonalEdgeStyle;rounded=0;orthogonalLoop=1;jettySize=auto;html=1;entryX=0.5;entryY=0;entryDx=0;entryDy=0;" edge="1" parent="1" source="V3e1K26lSJcsPeHMzUFd-4" target="V3e1K26lSJcsPeHMzUFd-2">
          <mxGeometry relative="1" as="geometry">
            <Array as="points">
              <mxPoint x="620" y="180" />
              <mxPoint x="425" y="180" />
            </Array>
          </mxGeometry>
        </mxCell>
        <mxCell id="V3e1K26lSJcsPeHMzUFd-4" value="Create account" style="rounded=0;whiteSpace=wrap;html=1;" vertex="1" parent="1">
          <mxGeometry x="560" y="200" width="120" height="60" as="geometry" />
        </mxCell>
        <mxCell id="V3e1K26lSJcsPeHMzUFd-8" value="Reset password" style="rounded=0;whiteSpace=wrap;html=1;" vertex="1" parent="1">
          <mxGeometry x="160" y="200" width="120" height="60" as="geometry" />
        </mxCell>
        <mxCell id="V3e1K26lSJcsPeHMzUFd-14" value="Verify account" style="rounded=0;whiteSpace=wrap;html=1;" vertex="1" parent="1">
          <mxGeometry x="700" y="200" width="120" height="60" as="geometry" />
        </mxCell>
        <mxCell id="V3e1K26lSJcsPeHMzUFd-21" value="" style="edgeStyle=orthogonalEdgeStyle;rounded=0;orthogonalLoop=1;jettySize=auto;html=1;" edge="1" parent="1" source="V3e1K26lSJcsPeHMzUFd-16" target="V3e1K26lSJcsPeHMzUFd-20">
          <mxGeometry relative="1" as="geometry">
            <Array as="points">
              <mxPoint x="425" y="410" />
              <mxPoint x="620" y="410" />
            </Array>
          </mxGeometry>
        </mxCell>
        <mxCell id="V3e1K26lSJcsPeHMzUFd-22" style="edgeStyle=orthogonalEdgeStyle;rounded=0;orthogonalLoop=1;jettySize=auto;html=1;" edge="1" parent="1" source="V3e1K26lSJcsPeHMzUFd-16" target="V3e1K26lSJcsPeHMzUFd-19">
          <mxGeometry relative="1" as="geometry">
            <Array as="points">
              <mxPoint x="425" y="410" />
              <mxPoint x="220" y="410" />
            </Array>
          </mxGeometry>
        </mxCell>
        <mxCell id="V3e1K26lSJcsPeHMzUFd-16" value="User dashboard" style="rounded=0;whiteSpace=wrap;html=1;" vertex="1" parent="1">
          <mxGeometry x="365" y="330" width="120" height="60" as="geometry" />
        </mxCell>
        <mxCell id="V3e1K26lSJcsPeHMzUFd-18" value="latest runs&lt;div&gt;personal dashboard&lt;/div&gt;&lt;div&gt;group dashboard&lt;/div&gt;" style="text;html=1;align=right;verticalAlign=middle;whiteSpace=wrap;rounded=0;" vertex="1" parent="1">
          <mxGeometry x="160" y="350" width="180" height="30" as="geometry" />
        </mxCell>
        <mxCell id="V3e1K26lSJcsPeHMzUFd-28" value="" style="edgeStyle=orthogonalEdgeStyle;rounded=0;orthogonalLoop=1;jettySize=auto;html=1;" edge="1" parent="1" source="V3e1K26lSJcsPeHMzUFd-19" target="V3e1K26lSJcsPeHMzUFd-23">
          <mxGeometry relative="1" as="geometry" />
        </mxCell>
        <mxCell id="V3e1K26lSJcsPeHMzUFd-19" value="Personal dashboard" style="rounded=0;whiteSpace=wrap;html=1;" vertex="1" parent="1">
          <mxGeometry x="160" y="440" width="120" height="60" as="geometry" />
        </mxCell>
        <mxCell id="V3e1K26lSJcsPeHMzUFd-34" style="edgeStyle=orthogonalEdgeStyle;rounded=0;orthogonalLoop=1;jettySize=auto;html=1;entryX=0.5;entryY=0;entryDx=0;entryDy=0;" edge="1" parent="1" source="V3e1K26lSJcsPeHMzUFd-20" target="V3e1K26lSJcsPeHMzUFd-33">
          <mxGeometry relative="1" as="geometry" />
        </mxCell>
        <mxCell id="V3e1K26lSJcsPeHMzUFd-36" value="" style="edgeStyle=orthogonalEdgeStyle;rounded=0;orthogonalLoop=1;jettySize=auto;html=1;" edge="1" parent="1" source="V3e1K26lSJcsPeHMzUFd-20" target="V3e1K26lSJcsPeHMzUFd-35">
          <mxGeometry relative="1" as="geometry" />
        </mxCell>
        <mxCell id="V3e1K26lSJcsPeHMzUFd-20" value="Group dashboards" style="rounded=0;whiteSpace=wrap;html=1;" vertex="1" parent="1">
          <mxGeometry x="560" y="440" width="120" height="60" as="geometry" />
        </mxCell>
        <mxCell id="V3e1K26lSJcsPeHMzUFd-23" value="List of runs" style="rounded=0;whiteSpace=wrap;html=1;fillColor=#fad9d5;strokeColor=#ae4132;" vertex="1" parent="1">
          <mxGeometry x="160" y="560" width="120" height="60" as="geometry" />
        </mxCell>
        <mxCell id="V3e1K26lSJcsPeHMzUFd-24" value="photo&amp;nbsp;&lt;br&gt;date&lt;br&gt;time&lt;br&gt;distannce&lt;br&gt;pace" style="text;html=1;align=right;verticalAlign=middle;whiteSpace=wrap;rounded=0;" vertex="1" parent="1">
          <mxGeometry x="20" y="655" width="110" height="30" as="geometry" />
        </mxCell>
        <mxCell id="V3e1K26lSJcsPeHMzUFd-31" value="" style="edgeStyle=orthogonalEdgeStyle;rounded=0;orthogonalLoop=1;jettySize=auto;html=1;" edge="1" parent="1" source="V3e1K26lSJcsPeHMzUFd-25" target="V3e1K26lSJcsPeHMzUFd-29">
          <mxGeometry relative="1" as="geometry" />
        </mxCell>
        <mxCell id="V3e1K26lSJcsPeHMzUFd-32" style="edgeStyle=orthogonalEdgeStyle;rounded=0;orthogonalLoop=1;jettySize=auto;html=1;entryX=0;entryY=0.5;entryDx=0;entryDy=0;" edge="1" parent="1" source="V3e1K26lSJcsPeHMzUFd-25" target="V3e1K26lSJcsPeHMzUFd-30">
          <mxGeometry relative="1" as="geometry">
            <Array as="points">
              <mxPoint x="320" y="670" />
              <mxPoint x="320" y="750" />
            </Array>
          </mxGeometry>
        </mxCell>
        <mxCell id="V3e1K26lSJcsPeHMzUFd-25" value="Latest run" style="rounded=0;whiteSpace=wrap;html=1;strokeColor=#CCCCCC;" vertex="1" parent="1">
          <mxGeometry x="160" y="640" width="120" height="60" as="geometry" />
        </mxCell>
        <mxCell id="V3e1K26lSJcsPeHMzUFd-26" value="Latest run -1" style="rounded=0;whiteSpace=wrap;html=1;strokeColor=#CCCCCC;" vertex="1" parent="1">
          <mxGeometry x="160" y="720" width="120" height="60" as="geometry" />
        </mxCell>
        <mxCell id="V3e1K26lSJcsPeHMzUFd-27" value="Latest run -n" style="rounded=0;whiteSpace=wrap;html=1;strokeColor=#CCCCCC;" vertex="1" parent="1">
          <mxGeometry x="160" y="800" width="120" height="60" as="geometry" />
        </mxCell>
        <mxCell id="V3e1K26lSJcsPeHMzUFd-29" value="Edit run" style="rounded=0;whiteSpace=wrap;html=1;" vertex="1" parent="1">
          <mxGeometry x="365" y="640" width="120" height="60" as="geometry" />
        </mxCell>
        <mxCell id="V3e1K26lSJcsPeHMzUFd-30" value="Delete run" style="rounded=0;whiteSpace=wrap;html=1;" vertex="1" parent="1">
          <mxGeometry x="365" y="720" width="120" height="60" as="geometry" />
        </mxCell>
        <mxCell id="V3e1K26lSJcsPeHMzUFd-46" value="" style="edgeStyle=orthogonalEdgeStyle;rounded=0;orthogonalLoop=1;jettySize=auto;html=1;" edge="1" parent="1" source="V3e1K26lSJcsPeHMzUFd-33" target="V3e1K26lSJcsPeHMzUFd-45">
          <mxGeometry relative="1" as="geometry" />
        </mxCell>
        <mxCell id="V3e1K26lSJcsPeHMzUFd-33" value="Create group dashboard" style="rounded=0;whiteSpace=wrap;html=1;" vertex="1" parent="1">
          <mxGeometry x="710" y="500" width="120" height="60" as="geometry" />
        </mxCell>
        <mxCell id="V3e1K26lSJcsPeHMzUFd-35" value="List of groups" style="rounded=0;whiteSpace=wrap;html=1;fillColor=#fad9d5;strokeColor=#ae4132;" vertex="1" parent="1">
          <mxGeometry x="560" y="560" width="120" height="60" as="geometry" />
        </mxCell>
        <mxCell id="V3e1K26lSJcsPeHMzUFd-43" style="edgeStyle=orthogonalEdgeStyle;rounded=0;orthogonalLoop=1;jettySize=auto;html=1;entryX=1;entryY=0.5;entryDx=0;entryDy=0;" edge="1" parent="1" source="V3e1K26lSJcsPeHMzUFd-37" target="V3e1K26lSJcsPeHMzUFd-41">
          <mxGeometry relative="1" as="geometry" />
        </mxCell>
        <mxCell id="V3e1K26lSJcsPeHMzUFd-44" style="edgeStyle=orthogonalEdgeStyle;rounded=0;orthogonalLoop=1;jettySize=auto;html=1;entryX=1;entryY=0.5;entryDx=0;entryDy=0;" edge="1" parent="1" source="V3e1K26lSJcsPeHMzUFd-37" target="V3e1K26lSJcsPeHMzUFd-42">
          <mxGeometry relative="1" as="geometry" />
        </mxCell>
        <mxCell id="V3e1K26lSJcsPeHMzUFd-49" style="edgeStyle=orthogonalEdgeStyle;rounded=0;orthogonalLoop=1;jettySize=auto;html=1;entryX=1;entryY=0.5;entryDx=0;entryDy=0;" edge="1" parent="1" source="V3e1K26lSJcsPeHMzUFd-37" target="V3e1K26lSJcsPeHMzUFd-48">
          <mxGeometry relative="1" as="geometry" />
        </mxCell>
        <mxCell id="V3e1K26lSJcsPeHMzUFd-37" value="Group 1" style="rounded=0;whiteSpace=wrap;html=1;strokeColor=#CCCCCC;" vertex="1" parent="1">
          <mxGeometry x="560" y="640" width="120" height="60" as="geometry" />
        </mxCell>
        <mxCell id="V3e1K26lSJcsPeHMzUFd-38" value="Group 2" style="rounded=0;whiteSpace=wrap;html=1;strokeColor=#CCCCCC;" vertex="1" parent="1">
          <mxGeometry x="560" y="720" width="120" height="60" as="geometry" />
        </mxCell>
        <mxCell id="V3e1K26lSJcsPeHMzUFd-40" value="Group n" style="rounded=0;whiteSpace=wrap;html=1;strokeColor=#CCCCCC;" vertex="1" parent="1">
          <mxGeometry x="560" y="800" width="120" height="60" as="geometry" />
        </mxCell>
        <mxCell id="V3e1K26lSJcsPeHMzUFd-41" value="Edit group" style="rounded=0;whiteSpace=wrap;html=1;" vertex="1" parent="1">
          <mxGeometry x="360" y="800" width="120" height="60" as="geometry" />
        </mxCell>
        <mxCell id="V3e1K26lSJcsPeHMzUFd-42" value="Delete group" style="rounded=0;whiteSpace=wrap;html=1;" vertex="1" parent="1">
          <mxGeometry x="360" y="880" width="120" height="60" as="geometry" />
        </mxCell>
        <mxCell id="V3e1K26lSJcsPeHMzUFd-47" style="edgeStyle=orthogonalEdgeStyle;rounded=0;orthogonalLoop=1;jettySize=auto;html=1;entryX=1;entryY=0.5;entryDx=0;entryDy=0;" edge="1" parent="1" source="V3e1K26lSJcsPeHMzUFd-45" target="V3e1K26lSJcsPeHMzUFd-35">
          <mxGeometry relative="1" as="geometry">
            <Array as="points">
              <mxPoint x="700" y="670" />
              <mxPoint x="700" y="590" />
            </Array>
          </mxGeometry>
        </mxCell>
        <mxCell id="V3e1K26lSJcsPeHMzUFd-45" value="Invite users to new group" style="rounded=0;whiteSpace=wrap;html=1;" vertex="1" parent="1">
          <mxGeometry x="710" y="640" width="120" height="60" as="geometry" />
        </mxCell>
        <mxCell id="V3e1K26lSJcsPeHMzUFd-54" style="edgeStyle=orthogonalEdgeStyle;rounded=0;orthogonalLoop=1;jettySize=auto;html=1;entryX=0.5;entryY=1;entryDx=0;entryDy=0;" edge="1" parent="1" source="V3e1K26lSJcsPeHMzUFd-48" target="V3e1K26lSJcsPeHMzUFd-45">
          <mxGeometry relative="1" as="geometry">
            <Array as="points">
              <mxPoint x="420" y="1030" />
              <mxPoint x="770" y="1030" />
            </Array>
          </mxGeometry>
        </mxCell>
        <mxCell id="V3e1K26lSJcsPeHMzUFd-48" value="View group" style="rounded=0;whiteSpace=wrap;html=1;" vertex="1" parent="1">
          <mxGeometry x="360" y="960" width="120" height="60" as="geometry" />
        </mxCell>
        <mxCell id="V3e1K26lSJcsPeHMzUFd-53" style="edgeStyle=orthogonalEdgeStyle;rounded=0;orthogonalLoop=1;jettySize=auto;html=1;entryX=0;entryY=0.5;entryDx=0;entryDy=0;" edge="1" parent="1" source="V3e1K26lSJcsPeHMzUFd-50" target="V3e1K26lSJcsPeHMzUFd-29">
          <mxGeometry relative="1" as="geometry">
            <Array as="points">
              <mxPoint x="320" y="1070" />
              <mxPoint x="320" y="670" />
            </Array>
          </mxGeometry>
        </mxCell>
        <mxCell id="V3e1K26lSJcsPeHMzUFd-50" value="Latest run" style="rounded=0;whiteSpace=wrap;html=1;strokeColor=#CCCCCC;" vertex="1" parent="1">
          <mxGeometry x="360" y="1040" width="120" height="60" as="geometry" />
        </mxCell>
        <mxCell id="V3e1K26lSJcsPeHMzUFd-51" value="Latest run -1" style="rounded=0;whiteSpace=wrap;html=1;strokeColor=#CCCCCC;" vertex="1" parent="1">
          <mxGeometry x="360" y="1120" width="120" height="60" as="geometry" />
        </mxCell>
        <mxCell id="V3e1K26lSJcsPeHMzUFd-52" value="Latest run -n" style="rounded=0;whiteSpace=wrap;html=1;strokeColor=#CCCCCC;" vertex="1" parent="1">
          <mxGeometry x="360" y="1200" width="120" height="60" as="geometry" />
        </mxCell>
      </root>
    </mxGraphModel>
  </diagram>
</mxfile>
